# xmcd
#
# Track frame offsets: 
#        150
#        18041
#        34178
#        49245
#        70199
#        87448
#        107616
#        122461
#        135847
#        148803
#        167286
#        182434
#        200438
#        220838
#        242709
#        257862
#        275878
#        291114
#        302978
#        316592
#
# Disc length: 4418 seconds
#
# Revision: 2
# Processed by: cddbd v1.5.2PL0 Copyright (c) Steve Scherf et al.
# Submitted via: ExactAudioCopyFreeDBPlugin 1.0
#
DISCID=1a114014
DTITLE=Various Artist - New Country Collection Vol. 5 [CD 3)
DYEAR=2012
DGENRE=Country
TTITLE0=Lila McCann - Down Came A Blackbird
TTITLE1=Chris Young - Center Of My World
TTITLE2=John Berry - What's In It For Me
TTITLE3=Lee Roy Parnell - On The Road
TTITLE4=Collin Raye - On The Verge
TTITLE5=Joe Diffie - John Deere Green
TTITLE6=Chris LeDoux - Cadillac Cowboy
TTITLE7=Jamey Johnson - The Dollar
TTITLE8=Jeff Carson - Holdin' Onto Something
TTITLE9=Suzy Bogguss - Hey Cinderella
TTITLE10=Kevin Sharp - She's Sure Talking It Well
TTITLE11=Little Texas - What Might Have Been
TTITLE12=Carlene Carter - Easy From Now On
TTITLE13=Wynonna - To Be Loved By You
TTITLE14=Steff Nevers - One Beer A Day
TTITLE15=Pam Tillis - Maybe It Was Memphis
TTITLE16=Rhett Akins - Don't Get Me Started
TTITLE17=Thom Pace - Maybe
TTITLE18=David Ball - Thinkin' Problem
TTITLE19=Sammy Kershaw - Politics, Religion And Her
EXTD=
EXTT0=
EXTT1=
EXTT2=
EXTT3=
EXTT4=
EXTT5=
EXTT6=
EXTT7=
EXTT8=
EXTT9=
EXTT10=
EXTT11=
EXTT12=
EXTT13=
EXTT14=
EXTT15=
EXTT16=
EXTT17=
EXTT18=
EXTT19=
PLAYORDER=
